<mxfile host="app.diagrams.net" agent="Mozilla/5.0 (Windows NT 10.0; Win64; x64) AppleWebKit/537.36 (KHTML, like Gecko) Chrome/134.0.0.0 Safari/537.36 Edg/134.0.0.0" modified="2025-03-16T17:11:58.418Z" version="24.4.8" etag="65lAv5l0aZz5EE1Xux-w" type="device">
  <diagram name="Page-1" id="k5kNYtwtWH9kNCxRxYLz">
    <mxGraphModel dx="985" dy="143" grid="1" gridSize="10" guides="1" tooltips="1" connect="1" arrows="1" fold="1" page="1" pageScale="1" pageWidth="850" pageHeight="1100" math="0" shadow="0">
      <root>
        <mxCell id="0" />
        <mxCell id="1" parent="0" />
        <mxCell id="to0TJb7XdhagzbTe4of1-1" value="Phần mềm quản lý và thu phí ở chung cư Blue Moon" style="rounded=0;whiteSpace=wrap;html=1;" parent="1" vertex="1">
          <mxGeometry x="260" y="330" width="240" height="80" as="geometry" />
        </mxCell>
        <mxCell id="to0TJb7XdhagzbTe4of1-2" value="1. Quản lý dự án" style="rounded=0;whiteSpace=wrap;html=1;" parent="1" vertex="1">
          <mxGeometry x="-440" y="470" width="120" height="60" as="geometry" />
        </mxCell>
        <mxCell id="to0TJb7XdhagzbTe4of1-3" value="2.Xây dựng phần mềm" style="rounded=0;whiteSpace=wrap;html=1;" parent="1" vertex="1">
          <mxGeometry x="305" y="450" width="120" height="60" as="geometry" />
        </mxCell>
        <mxCell id="to0TJb7XdhagzbTe4of1-4" value="3. Chăm sóc hỗ trợ" style="rounded=0;whiteSpace=wrap;html=1;" parent="1" vertex="1">
          <mxGeometry x="890" y="450" width="120" height="60" as="geometry" />
        </mxCell>
        <mxCell id="to0TJb7XdhagzbTe4of1-5" value="" style="endArrow=none;html=1;rounded=0;entryX=0.403;entryY=1.017;entryDx=0;entryDy=0;entryPerimeter=0;exitX=0.5;exitY=0;exitDx=0;exitDy=0;" parent="1" source="to0TJb7XdhagzbTe4of1-2" edge="1">
          <mxGeometry width="50" height="50" relative="1" as="geometry">
            <mxPoint x="150" y="480" as="sourcePoint" />
            <mxPoint x="346.72" y="411.36" as="targetPoint" />
            <Array as="points">
              <mxPoint x="-380" y="430" />
              <mxPoint x="347" y="430" />
            </Array>
          </mxGeometry>
        </mxCell>
        <mxCell id="to0TJb7XdhagzbTe4of1-9" value="" style="endArrow=none;html=1;rounded=0;entryX=0.436;entryY=0.988;entryDx=0;entryDy=0;entryPerimeter=0;" parent="1" source="to0TJb7XdhagzbTe4of1-3" target="to0TJb7XdhagzbTe4of1-1" edge="1">
          <mxGeometry width="50" height="50" relative="1" as="geometry">
            <mxPoint x="340" y="540" as="sourcePoint" />
            <mxPoint x="390" y="490" as="targetPoint" />
          </mxGeometry>
        </mxCell>
        <mxCell id="to0TJb7XdhagzbTe4of1-10" value="" style="endArrow=none;html=1;rounded=0;exitX=0.5;exitY=0;exitDx=0;exitDy=0;" parent="1" source="to0TJb7XdhagzbTe4of1-4" edge="1">
          <mxGeometry width="50" height="50" relative="1" as="geometry">
            <mxPoint x="340" y="540" as="sourcePoint" />
            <mxPoint x="390" y="410" as="targetPoint" />
            <Array as="points">
              <mxPoint x="950" y="430" />
              <mxPoint x="390" y="430" />
            </Array>
          </mxGeometry>
        </mxCell>
        <mxCell id="to0TJb7XdhagzbTe4of1-11" value="" style="endArrow=none;html=1;rounded=0;entryX=0.083;entryY=1.01;entryDx=0;entryDy=0;entryPerimeter=0;exitX=0;exitY=0.25;exitDx=0;exitDy=0;" parent="1" source="to0TJb7XdhagzbTe4of1-20" target="to0TJb7XdhagzbTe4of1-2" edge="1">
          <mxGeometry width="50" height="50" relative="1" as="geometry">
            <mxPoint x="-430" y="790" as="sourcePoint" />
            <mxPoint x="-420" y="540" as="targetPoint" />
            <Array as="points">
              <mxPoint x="-430" y="783" />
            </Array>
          </mxGeometry>
        </mxCell>
        <mxCell id="to0TJb7XdhagzbTe4of1-13" value="1.1. Lập kế&#xa;hoạch" style="rounded=0;whiteSpace=wrap;html=1;" parent="1" vertex="1">
          <mxGeometry x="-390" y="550" width="100" height="50" as="geometry" />
        </mxCell>
        <mxCell id="to0TJb7XdhagzbTe4of1-15" value="1.2. Giám sát và&#xa;kiểm soát" style="rounded=0;whiteSpace=wrap;html=1;" parent="1" vertex="1">
          <mxGeometry x="-390" y="620" width="100" height="50" as="geometry" />
        </mxCell>
        <mxCell id="to0TJb7XdhagzbTe4of1-18" value="1.3. Kết thúc dự&#xa;án" style="rounded=0;whiteSpace=wrap;html=1;" parent="1" vertex="1">
          <mxGeometry x="-390" y="700" width="100" height="50" as="geometry" />
        </mxCell>
        <mxCell id="to0TJb7XdhagzbTe4of1-20" value="1.4. Quản lý hợp&#xa;đồng" style="rounded=0;whiteSpace=wrap;html=1;" parent="1" vertex="1">
          <mxGeometry x="-390" y="770" width="100" height="50" as="geometry" />
        </mxCell>
        <mxCell id="to0TJb7XdhagzbTe4of1-21" value="" style="endArrow=none;html=1;rounded=0;entryX=0;entryY=0.5;entryDx=0;entryDy=0;" parent="1" target="to0TJb7XdhagzbTe4of1-13" edge="1">
          <mxGeometry width="50" height="50" relative="1" as="geometry">
            <mxPoint x="-430" y="575" as="sourcePoint" />
            <mxPoint x="120" y="470" as="targetPoint" />
          </mxGeometry>
        </mxCell>
        <mxCell id="to0TJb7XdhagzbTe4of1-22" value="" style="endArrow=none;html=1;rounded=0;entryX=0;entryY=0.5;entryDx=0;entryDy=0;" parent="1" edge="1">
          <mxGeometry width="50" height="50" relative="1" as="geometry">
            <mxPoint x="-430" y="650" as="sourcePoint" />
            <mxPoint x="-390" y="650" as="targetPoint" />
          </mxGeometry>
        </mxCell>
        <mxCell id="to0TJb7XdhagzbTe4of1-23" value="" style="endArrow=none;html=1;rounded=0;entryX=0;entryY=0.5;entryDx=0;entryDy=0;" parent="1" edge="1">
          <mxGeometry width="50" height="50" relative="1" as="geometry">
            <mxPoint x="-430" y="724.5" as="sourcePoint" />
            <mxPoint x="-390" y="724.5" as="targetPoint" />
          </mxGeometry>
        </mxCell>
        <mxCell id="to0TJb7XdhagzbTe4of1-25" value="" style="endArrow=none;html=1;rounded=0;entryX=0.083;entryY=1.01;entryDx=0;entryDy=0;entryPerimeter=0;exitX=0;exitY=0.5;exitDx=0;exitDy=0;" parent="1" source="to0TJb7XdhagzbTe4of1-29" edge="1">
          <mxGeometry width="50" height="50" relative="1" as="geometry">
            <mxPoint x="910" y="769.5" as="sourcePoint" />
            <mxPoint x="910" y="510.5" as="targetPoint" />
            <Array as="points">
              <mxPoint x="910" y="705" />
            </Array>
          </mxGeometry>
        </mxCell>
        <mxCell id="to0TJb7XdhagzbTe4of1-27" value="&lt;div&gt;3.1. Hỗ trợ người dùng cuối&lt;/div&gt;&lt;div&gt;&lt;br&gt;&lt;/div&gt;" style="rounded=0;whiteSpace=wrap;html=1;" parent="1" vertex="1">
          <mxGeometry x="950" y="530" width="100" height="50" as="geometry" />
        </mxCell>
        <mxCell id="to0TJb7XdhagzbTe4of1-28" value="&lt;div&gt;3.2. Áp dụng&lt;/div&gt;&lt;div&gt;công cụ hỗ trợ&lt;/div&gt;" style="rounded=0;whiteSpace=wrap;html=1;" parent="1" vertex="1">
          <mxGeometry x="950" y="610" width="100" height="50" as="geometry" />
        </mxCell>
        <mxCell id="to0TJb7XdhagzbTe4of1-29" value="3.3. Áp dụng tiêu&lt;div&gt;chuẩn&lt;/div&gt;" style="rounded=0;whiteSpace=wrap;html=1;" parent="1" vertex="1">
          <mxGeometry x="950" y="680" width="100" height="50" as="geometry" />
        </mxCell>
        <mxCell id="to0TJb7XdhagzbTe4of1-31" value="" style="endArrow=none;html=1;rounded=0;entryX=0;entryY=0.5;entryDx=0;entryDy=0;" parent="1" edge="1">
          <mxGeometry width="50" height="50" relative="1" as="geometry">
            <mxPoint x="910" y="560" as="sourcePoint" />
            <mxPoint x="950" y="560" as="targetPoint" />
          </mxGeometry>
        </mxCell>
        <mxCell id="to0TJb7XdhagzbTe4of1-32" value="" style="endArrow=none;html=1;rounded=0;entryX=0;entryY=0.5;entryDx=0;entryDy=0;" parent="1" edge="1">
          <mxGeometry width="50" height="50" relative="1" as="geometry">
            <mxPoint x="910" y="634.5" as="sourcePoint" />
            <mxPoint x="950" y="634.5" as="targetPoint" />
          </mxGeometry>
        </mxCell>
        <mxCell id="to0TJb7XdhagzbTe4of1-33" value="2.1. Quản lý thu&lt;br&gt;phí" style="rounded=0;whiteSpace=wrap;html=1;" parent="1" vertex="1">
          <mxGeometry x="-30" y="545" width="120" height="60" as="geometry" />
        </mxCell>
        <mxCell id="to0TJb7XdhagzbTe4of1-34" value="2.2. Quản lý&#xa;người dùng" style="rounded=0;whiteSpace=wrap;html=1;" parent="1" vertex="1">
          <mxGeometry x="460" y="545" width="120" height="60" as="geometry" />
        </mxCell>
        <mxCell id="to0TJb7XdhagzbTe4of1-35" value="2.3. Quản lý hộ&#xa;gia đình" style="rounded=0;whiteSpace=wrap;html=1;" parent="1" vertex="1">
          <mxGeometry x="670" y="550" width="120" height="60" as="geometry" />
        </mxCell>
        <mxCell id="to0TJb7XdhagzbTe4of1-36" value="2.1.1. &#xa;Thiết lập&#xa;yêu cầu" style="rounded=0;whiteSpace=wrap;html=1;" parent="1" vertex="1">
          <mxGeometry x="-270" y="675" width="120" height="60" as="geometry" />
        </mxCell>
        <mxCell id="to0TJb7XdhagzbTe4of1-37" value="2.1.2. Lập kế&#xa;hoạch phân&#xa;đoạn" style="rounded=0;whiteSpace=wrap;html=1;" parent="1" vertex="1">
          <mxGeometry x="-110" y="675" width="120" height="60" as="geometry" />
        </mxCell>
        <mxCell id="to0TJb7XdhagzbTe4of1-38" value="2.1.3. &#xa;Phát triển" style="rounded=0;whiteSpace=wrap;html=1;" parent="1" vertex="1">
          <mxGeometry x="40" y="675" width="120" height="60" as="geometry" />
        </mxCell>
        <mxCell id="to0TJb7XdhagzbTe4of1-39" value="2.1.4.&#xa;Vận hành" style="rounded=0;whiteSpace=wrap;html=1;" parent="1" vertex="1">
          <mxGeometry x="210" y="675" width="120" height="60" as="geometry" />
        </mxCell>
        <mxCell id="to0TJb7XdhagzbTe4of1-40" value="" style="endArrow=none;html=1;rounded=0;exitX=0.5;exitY=0;exitDx=0;exitDy=0;" parent="1" source="to0TJb7XdhagzbTe4of1-36" target="to0TJb7XdhagzbTe4of1-33" edge="1">
          <mxGeometry width="50" height="50" relative="1" as="geometry">
            <mxPoint x="120" y="760" as="sourcePoint" />
            <mxPoint x="170" y="710" as="targetPoint" />
            <Array as="points">
              <mxPoint x="-210" y="620" />
              <mxPoint x="30" y="620" />
            </Array>
          </mxGeometry>
        </mxCell>
        <mxCell id="to0TJb7XdhagzbTe4of1-41" value="" style="endArrow=none;html=1;rounded=0;exitX=0.5;exitY=0;exitDx=0;exitDy=0;" parent="1" source="to0TJb7XdhagzbTe4of1-37" edge="1">
          <mxGeometry width="50" height="50" relative="1" as="geometry">
            <mxPoint x="120" y="760" as="sourcePoint" />
            <mxPoint x="-50" y="620" as="targetPoint" />
          </mxGeometry>
        </mxCell>
        <mxCell id="to0TJb7XdhagzbTe4of1-42" value="" style="endArrow=none;html=1;rounded=0;" parent="1" edge="1">
          <mxGeometry width="50" height="50" relative="1" as="geometry">
            <mxPoint x="30" y="620" as="sourcePoint" />
            <mxPoint x="270" y="620" as="targetPoint" />
          </mxGeometry>
        </mxCell>
        <mxCell id="to0TJb7XdhagzbTe4of1-44" value="" style="endArrow=none;html=1;rounded=0;" parent="1" source="to0TJb7XdhagzbTe4of1-39" edge="1">
          <mxGeometry width="50" height="50" relative="1" as="geometry">
            <mxPoint x="120" y="760" as="sourcePoint" />
            <mxPoint x="270" y="620" as="targetPoint" />
          </mxGeometry>
        </mxCell>
        <mxCell id="to0TJb7XdhagzbTe4of1-45" value="" style="endArrow=none;html=1;rounded=0;exitX=0.58;exitY=-0.013;exitDx=0;exitDy=0;exitPerimeter=0;" parent="1" source="to0TJb7XdhagzbTe4of1-38" edge="1">
          <mxGeometry width="50" height="50" relative="1" as="geometry">
            <mxPoint x="120" y="760" as="sourcePoint" />
            <mxPoint x="110" y="620" as="targetPoint" />
          </mxGeometry>
        </mxCell>
        <mxCell id="to0TJb7XdhagzbTe4of1-46" value="2.1.3.1. &#xa;Tạo khoản thu" style="rounded=0;whiteSpace=wrap;html=1;" parent="1" vertex="1">
          <mxGeometry x="90" y="750" width="100" height="55" as="geometry" />
        </mxCell>
        <mxCell id="to0TJb7XdhagzbTe4of1-47" value="2.1.3.2.&amp;nbsp;&lt;br&gt;Thu phí" style="rounded=0;whiteSpace=wrap;html=1;" parent="1" vertex="1">
          <mxGeometry x="90" y="820" width="100" height="50" as="geometry" />
        </mxCell>
        <mxCell id="to0TJb7XdhagzbTe4of1-48" value="2.1.3.3. Thống kê&#xa;các khoản đóng&#xa;góp" style="rounded=0;whiteSpace=wrap;html=1;" parent="1" vertex="1">
          <mxGeometry x="90" y="890" width="100" height="60" as="geometry" />
        </mxCell>
        <mxCell id="to0TJb7XdhagzbTe4of1-52" value="" style="endArrow=none;html=1;rounded=0;entryX=0.083;entryY=1.01;entryDx=0;entryDy=0;entryPerimeter=0;" parent="1" edge="1">
          <mxGeometry width="50" height="50" relative="1" as="geometry">
            <mxPoint x="90" y="920" as="sourcePoint" />
            <mxPoint x="50" y="735" as="targetPoint" />
            <Array as="points">
              <mxPoint x="50" y="920" />
            </Array>
          </mxGeometry>
        </mxCell>
        <mxCell id="to0TJb7XdhagzbTe4of1-54" value="" style="endArrow=none;html=1;rounded=0;entryX=0;entryY=0.5;entryDx=0;entryDy=0;" parent="1" edge="1">
          <mxGeometry width="50" height="50" relative="1" as="geometry">
            <mxPoint x="50" y="770" as="sourcePoint" />
            <mxPoint x="90" y="770" as="targetPoint" />
          </mxGeometry>
        </mxCell>
        <mxCell id="to0TJb7XdhagzbTe4of1-55" value="" style="endArrow=none;html=1;rounded=0;entryX=0;entryY=0.5;entryDx=0;entryDy=0;" parent="1" edge="1">
          <mxGeometry width="50" height="50" relative="1" as="geometry">
            <mxPoint x="50" y="840" as="sourcePoint" />
            <mxPoint x="90" y="840" as="targetPoint" />
          </mxGeometry>
        </mxCell>
        <mxCell id="to0TJb7XdhagzbTe4of1-56" value="" style="endArrow=none;html=1;rounded=0;entryX=0.5;entryY=1;entryDx=0;entryDy=0;exitX=0.5;exitY=0;exitDx=0;exitDy=0;" parent="1" source="to0TJb7XdhagzbTe4of1-33" target="to0TJb7XdhagzbTe4of1-3" edge="1">
          <mxGeometry width="50" height="50" relative="1" as="geometry">
            <mxPoint x="240" y="610" as="sourcePoint" />
            <mxPoint x="290" y="560" as="targetPoint" />
            <Array as="points">
              <mxPoint x="30" y="530" />
              <mxPoint x="365" y="530" />
            </Array>
          </mxGeometry>
        </mxCell>
        <mxCell id="to0TJb7XdhagzbTe4of1-57" value="" style="endArrow=none;html=1;rounded=0;exitX=0.5;exitY=0;exitDx=0;exitDy=0;" parent="1" source="to0TJb7XdhagzbTe4of1-35" edge="1">
          <mxGeometry width="50" height="50" relative="1" as="geometry">
            <mxPoint x="470" y="610" as="sourcePoint" />
            <mxPoint x="360" y="530" as="targetPoint" />
            <Array as="points">
              <mxPoint x="730" y="530" />
            </Array>
          </mxGeometry>
        </mxCell>
        <mxCell id="to0TJb7XdhagzbTe4of1-58" value="" style="endArrow=none;html=1;rounded=0;" parent="1" source="to0TJb7XdhagzbTe4of1-34" edge="1">
          <mxGeometry width="50" height="50" relative="1" as="geometry">
            <mxPoint x="470" y="610" as="sourcePoint" />
            <mxPoint x="520" y="530" as="targetPoint" />
          </mxGeometry>
        </mxCell>
        <mxCell id="to0TJb7XdhagzbTe4of1-59" value="" style="endArrow=none;html=1;rounded=0;entryX=0.083;entryY=1.01;entryDx=0;entryDy=0;entryPerimeter=0;exitX=0;exitY=0.25;exitDx=0;exitDy=0;" parent="1" source="to0TJb7XdhagzbTe4of1-63" edge="1">
          <mxGeometry width="50" height="50" relative="1" as="geometry">
            <mxPoint x="470" y="864" as="sourcePoint" />
            <mxPoint x="470" y="605" as="targetPoint" />
            <Array as="points">
              <mxPoint x="470" y="857" />
            </Array>
          </mxGeometry>
        </mxCell>
        <mxCell id="to0TJb7XdhagzbTe4of1-60" value="&lt;b&gt;&lt;br&gt;&lt;/b&gt;&amp;nbsp;2.2.1 Đăng ký tài khoản&lt;div&gt;&lt;br&gt;&lt;/div&gt;" style="rounded=0;whiteSpace=wrap;html=1;" parent="1" vertex="1">
          <mxGeometry x="510" y="624" width="100" height="50" as="geometry" />
        </mxCell>
        <mxCell id="to0TJb7XdhagzbTe4of1-61" value="&lt;br&gt;2.2.2 Đăng nhập và đăng xuất" style="rounded=0;whiteSpace=wrap;html=1;" parent="1" vertex="1">
          <mxGeometry x="510" y="694" width="100" height="50" as="geometry" />
        </mxCell>
        <mxCell id="to0TJb7XdhagzbTe4of1-62" value="&lt;br&gt;2.2.3 Quản lý quyền truy cập" style="rounded=0;whiteSpace=wrap;html=1;" parent="1" vertex="1">
          <mxGeometry x="510" y="760" width="100" height="64" as="geometry" />
        </mxCell>
        <mxCell id="to0TJb7XdhagzbTe4of1-63" value="2.2.4 Quản lý thông tin cá nhân&lt;div&gt;&lt;br/&gt;&lt;/div&gt;" style="rounded=0;whiteSpace=wrap;html=1;" parent="1" vertex="1">
          <mxGeometry x="510" y="844" width="100" height="50" as="geometry" />
        </mxCell>
        <mxCell id="to0TJb7XdhagzbTe4of1-64" value="" style="endArrow=none;html=1;rounded=0;entryX=0;entryY=0.5;entryDx=0;entryDy=0;" parent="1" target="to0TJb7XdhagzbTe4of1-60" edge="1">
          <mxGeometry width="50" height="50" relative="1" as="geometry">
            <mxPoint x="470" y="649" as="sourcePoint" />
            <mxPoint x="1020" y="544" as="targetPoint" />
          </mxGeometry>
        </mxCell>
        <mxCell id="to0TJb7XdhagzbTe4of1-65" value="" style="endArrow=none;html=1;rounded=0;entryX=0;entryY=0.5;entryDx=0;entryDy=0;" parent="1" edge="1">
          <mxGeometry width="50" height="50" relative="1" as="geometry">
            <mxPoint x="470" y="724" as="sourcePoint" />
            <mxPoint x="510" y="724" as="targetPoint" />
          </mxGeometry>
        </mxCell>
        <mxCell id="to0TJb7XdhagzbTe4of1-66" value="" style="endArrow=none;html=1;rounded=0;entryX=0;entryY=0.5;entryDx=0;entryDy=0;" parent="1" edge="1">
          <mxGeometry width="50" height="50" relative="1" as="geometry">
            <mxPoint x="470" y="798.5" as="sourcePoint" />
            <mxPoint x="510" y="798.5" as="targetPoint" />
          </mxGeometry>
        </mxCell>
        <mxCell id="to0TJb7XdhagzbTe4of1-67" value="" style="endArrow=none;html=1;rounded=0;entryX=0.083;entryY=1.01;entryDx=0;entryDy=0;entryPerimeter=0;exitX=0.004;exitY=0.387;exitDx=0;exitDy=0;exitPerimeter=0;" parent="1" source="to0TJb7XdhagzbTe4of1-71" edge="1">
          <mxGeometry width="50" height="50" relative="1" as="geometry">
            <mxPoint x="690" y="869" as="sourcePoint" />
            <mxPoint x="690" y="610" as="targetPoint" />
            <Array as="points">
              <mxPoint x="690" y="873" />
            </Array>
          </mxGeometry>
        </mxCell>
        <mxCell id="to0TJb7XdhagzbTe4of1-68" value="&lt;br&gt;2.3.1 Quản lý danh sách hộ gia đình&lt;div&gt;&lt;br/&gt;&lt;/div&gt;" style="rounded=0;whiteSpace=wrap;html=1;" parent="1" vertex="1">
          <mxGeometry x="730" y="629" width="100" height="50" as="geometry" />
        </mxCell>
        <mxCell id="to0TJb7XdhagzbTe4of1-69" value="2.3.2 Quản lý thông tin cư dân&lt;div&gt;&lt;br/&gt;&lt;/div&gt;" style="rounded=0;whiteSpace=wrap;html=1;" parent="1" vertex="1">
          <mxGeometry x="730" y="699" width="100" height="50" as="geometry" />
        </mxCell>
        <mxCell id="to0TJb7XdhagzbTe4of1-70" value="2.3.3 Thống kê và báo cáo dân cư&lt;div&gt;&lt;br/&gt;&lt;/div&gt;" style="rounded=0;whiteSpace=wrap;html=1;" parent="1" vertex="1">
          <mxGeometry x="730" y="779" width="100" height="50" as="geometry" />
        </mxCell>
        <mxCell id="to0TJb7XdhagzbTe4of1-71" value="2.3.4 Quản lý phản hồi và khiếu nại&lt;div&gt;&lt;br/&gt;&lt;/div&gt;" style="rounded=0;whiteSpace=wrap;html=1;" parent="1" vertex="1">
          <mxGeometry x="730" y="849" width="100" height="61" as="geometry" />
        </mxCell>
        <mxCell id="to0TJb7XdhagzbTe4of1-72" value="" style="endArrow=none;html=1;rounded=0;entryX=0;entryY=0.5;entryDx=0;entryDy=0;" parent="1" target="to0TJb7XdhagzbTe4of1-68" edge="1">
          <mxGeometry width="50" height="50" relative="1" as="geometry">
            <mxPoint x="690" y="654" as="sourcePoint" />
            <mxPoint x="1240" y="549" as="targetPoint" />
          </mxGeometry>
        </mxCell>
        <mxCell id="to0TJb7XdhagzbTe4of1-73" value="" style="endArrow=none;html=1;rounded=0;entryX=0;entryY=0.5;entryDx=0;entryDy=0;" parent="1" edge="1">
          <mxGeometry width="50" height="50" relative="1" as="geometry">
            <mxPoint x="690" y="729" as="sourcePoint" />
            <mxPoint x="730" y="729" as="targetPoint" />
          </mxGeometry>
        </mxCell>
        <mxCell id="to0TJb7XdhagzbTe4of1-74" value="" style="endArrow=none;html=1;rounded=0;entryX=0;entryY=0.5;entryDx=0;entryDy=0;" parent="1" edge="1">
          <mxGeometry width="50" height="50" relative="1" as="geometry">
            <mxPoint x="690" y="803.5" as="sourcePoint" />
            <mxPoint x="730" y="803.5" as="targetPoint" />
          </mxGeometry>
        </mxCell>
        <mxCell id="5N2UjGfaLHVpwLz67uvc-1" value="2.2.5 Khôi phục mật khẩu" style="rounded=0;whiteSpace=wrap;html=1;" vertex="1" parent="1">
          <mxGeometry x="510" y="920" width="100" height="50" as="geometry" />
        </mxCell>
        <mxCell id="5N2UjGfaLHVpwLz67uvc-2" value="" style="endArrow=none;html=1;rounded=0;exitX=0.008;exitY=0.436;exitDx=0;exitDy=0;exitPerimeter=0;" edge="1" parent="1" source="5N2UjGfaLHVpwLz67uvc-1">
          <mxGeometry width="50" height="50" relative="1" as="geometry">
            <mxPoint x="510" y="960" as="sourcePoint" />
            <mxPoint x="470" y="850" as="targetPoint" />
            <Array as="points">
              <mxPoint x="470" y="942" />
            </Array>
          </mxGeometry>
        </mxCell>
      </root>
    </mxGraphModel>
  </diagram>
</mxfile>
